<?xml version="1.0" encoding="utf-8"?>
<!-- Generator: Adobe Illustrator 21.0.0, SVG Export Plug-In . SVG Version: 6.00 Build 0)  -->
<svg version="1.1" id="Layer_1" xmlns="http://www.w3.org/2000/svg" xmlns:xlink="http://www.w3.org/1999/xlink" x="0px" y="0px"
	 viewBox="0 0 294.3 220" style="enable-background:new 0 0 294.3 220;" xml:space="preserve">
<style type="text/css">
	.st0{fill:none;}
	.st1{fill:url(#SVGID_1_);}
	.st2{fill:url(#SVGID_2_);}
	.st3{fill:url(#SVGID_3_);}
	.st4{fill:url(#SVGID_4_);}
	.st5{fill:url(#SVGID_5_);}
	.st6{fill:url(#SVGID_6_);}
	.st7{fill:url(#SVGID_7_);}
	.st8{fill:url(#SVGID_8_);}
	.st9{fill:url(#SVGID_9_);}
	.st10{fill:#FFFFFF;}
</style>
<g>
	<line class="st0" x1="44.4" y1="77.3" x2="256.3" y2="77.3"/>
	<g>
		<g>
			<linearGradient id="SVGID_1_" gradientUnits="userSpaceOnUse" x1="76.2114" y1="-18.2226" x2="220.267" y2="125.833">
				<stop  offset="0" style="stop-color:#2FEFFF"/>
				<stop  offset="0.5823" style="stop-color:#A68FA4"/>
				<stop  offset="1" style="stop-color:#F74D66"/>
			</linearGradient>
			<path class="st1" d="M158.8,27c0,0.7-1,0.9-1.2,0.2c-4.6-18.3-8.2-17.9-9.7-17.9c-1.9,0-6.1,4.3-10.3,20.5
				c-3.7,14.3-6.4,30.3-7.6,52.9l-6.3,0C124.5,68.7,129.2,3,148,3C148,3,157.8,1.1,158.8,27z"/>
			<g>
				<linearGradient id="SVGID_2_" gradientUnits="userSpaceOnUse" x1="47.4181" y1="10.5707" x2="191.4736" y2="154.6263">
					<stop  offset="0" style="stop-color:#2FEFFF"/>
					<stop  offset="0.5823" style="stop-color:#A68FA4"/>
					<stop  offset="1" style="stop-color:#F74D66"/>
				</linearGradient>
				<path class="st2" d="M119.7,67.7c-3.9,3.1-7.8,6.4-11.7,9.8c-0.8,0.7-2.2,2.2-3.8,3.9c-0.6,0.7,0.3,1.7,1,1.1
					c3.7-2.8,8.6-6.5,14.3-10.5C119.5,70.7,119.6,69.2,119.7,67.7z"/>
				<linearGradient id="SVGID_3_" gradientUnits="userSpaceOnUse" x1="101.5929" y1="-43.6041" x2="245.6485" y2="100.4514">
					<stop  offset="0" style="stop-color:#2FEFFF"/>
					<stop  offset="0.5823" style="stop-color:#A68FA4"/>
					<stop  offset="1" style="stop-color:#F74D66"/>
				</linearGradient>
				<path class="st3" d="M245.1,29.5c-19.2-16.8-62.3-5.3-107.7,26.6c-0.3,1.9-0.5,3.9-0.7,5.9c15.5-9.9,33.9-20.3,52.1-26.9
					c23.9-8.6,43.2-9.5,52.2-0.8c10.2,9.8,1.2,37.1-2.4,46.7c-0.1,0.2,0.3,0.4,0.4,0.2C251.5,56.9,256.9,39.9,245.1,29.5z"/>
			</g>
			<linearGradient id="SVGID_4_" gradientUnits="userSpaceOnUse" x1="43.4106" y1="14.5782" x2="187.4662" y2="158.6337">
				<stop  offset="0" style="stop-color:#2FEFFF"/>
				<stop  offset="0.5823" style="stop-color:#A68FA4"/>
				<stop  offset="1" style="stop-color:#F74D66"/>
			</linearGradient>
			<path class="st4" d="M123.3,34.9c-32.7-15.1-59.1-17.1-72.5-5.4c-11.6,10.2-10.6,29.4,0.9,53c0.2,0.3,0.6,0.1,0.5-0.2
				C39.6,44.3,55,34.2,55,34.2c11.2-9.8,37.2-6.2,67,7.5C122.4,39.4,122.8,37.1,123.3,34.9z"/>
			<g>
				<linearGradient id="SVGID_5_" gradientUnits="userSpaceOnUse" x1="79.7448" y1="-21.756" x2="223.8004" y2="122.2995">
					<stop  offset="0" style="stop-color:#2FEFFF"/>
					<stop  offset="0.5823" style="stop-color:#A68FA4"/>
					<stop  offset="1" style="stop-color:#F74D66"/>
				</linearGradient>
				<path class="st5" d="M158.7,55.2c-2,1.1-3.9,2.3-5.9,3.5c11.3,4.9,27.5,16.3,35.6,22.2c0.4,0.3,0.9-0.3,0.5-0.6
					C188.9,80.2,176.4,65.9,158.7,55.2z"/>
			</g>
		</g>
		<g>
			<linearGradient id="SVGID_6_" gradientUnits="userSpaceOnUse" x1="9.2061" y1="48.7827" x2="153.2617" y2="192.8382">
				<stop  offset="0" style="stop-color:#2FEFFF"/>
				<stop  offset="0.5823" style="stop-color:#A68FA4"/>
				<stop  offset="1" style="stop-color:#F74D66"/>
			</linearGradient>
			<path class="st6" d="M159.2,193c0-0.7-1-0.9-1.2-0.2c-4.6,18.3-8.2,17.9-9.7,17.9c-1.9,0-6.1-4.3-10.3-20.5
				c-3.7-14.3-6.4-30.3-7.6-52.9l-6.3,0c0.7,14,5.4,79.7,24.2,79.7C148.4,217.1,158.2,218.9,159.2,193z"/>
			<linearGradient id="SVGID_7_" gradientUnits="userSpaceOnUse" x1="-20.2532" y1="78.2421" x2="123.8023" y2="222.2976">
				<stop  offset="0" style="stop-color:#2FEFFF"/>
				<stop  offset="0.5823" style="stop-color:#A68FA4"/>
				<stop  offset="1" style="stop-color:#F74D66"/>
			</linearGradient>
			<path class="st7" d="M121.1,178.7c-28.4,12.6-53.3,15.9-64.6,7.1c-11.1-8.6-5.7-32.9-2.2-46.3c0.1-0.6-0.6-0.8-0.9-0.3
				c-10.7,20.9-14.8,37-3.2,50.3c5,5.7,15,8.6,25,8.6c12.6,0,29.3-6,46.7-13.8l-0.1-1.7C121.6,181.3,121.3,180,121.1,178.7z"/>
			<g>
				<linearGradient id="SVGID_8_" gradientUnits="userSpaceOnUse" x1="49.5519" y1="8.437" x2="193.6074" y2="152.4925">
					<stop  offset="0" style="stop-color:#2FEFFF"/>
					<stop  offset="0.5823" style="stop-color:#A68FA4"/>
					<stop  offset="1" style="stop-color:#F74D66"/>
				</linearGradient>
				<path class="st8" d="M240.2,188.2c-24.5,17.1-71.6-7.1-81.4-11.9c-0.1-0.1-0.2,0-0.1,0.1c34.8,18.7,45.5,20.3,62.8,21.7
					c10,0,18.6-1.8,23.9-7.2c11-11,4.5-31.5-5.9-51.2C239.6,139.7,255.9,177.2,240.2,188.2z"/>
			</g>
			<linearGradient id="SVGID_9_" gradientUnits="userSpaceOnUse" x1="36.0476" y1="21.9412" x2="180.1032" y2="165.9967">
				<stop  offset="0" style="stop-color:#2FEFFF"/>
				<stop  offset="0.5823" style="stop-color:#A68FA4"/>
				<stop  offset="1" style="stop-color:#F74D66"/>
			</linearGradient>
			<path class="st9" d="M194.4,134.6c-7.7,5.9-35.9,28.4-53.1,34.9c0.2,1.5,0.5,3,0.8,4.5c25.2-12.5,46.5-32.9,52.5-39.1
				C194.8,134.7,194.6,134.5,194.4,134.6z"/>
		</g>
	</g>
	<g>
		<g>
			<path class="st10" d="M7.6,101.4v5.4h6.9v3.7H7.6v5.8h8.5v3.8H2.3V97.6h13.9l-0.6,3.8H7.6z"/>
			<path class="st10" d="M45,116l-0.6,4.2H30.8V97.6h5.3V116H45z"/>
			<path class="st10" d="M64.3,101.4v5.4h6.9v3.7h-6.9v5.8h8.5v3.8H59V97.6h13.9l-0.6,3.8H64.3z"/>
			<path class="st10" d="M104.7,120.2l-0.4-8.8c-0.2-3.2-0.2-6.4-0.1-9.2l-3.5,15.7h-5.1L92,102.2c0.2,3.3,0.2,6.1,0.1,9.3l-0.4,8.8
				h-5.2l1.7-22.6h6.7l3.4,15.3l3.2-15.3h6.8l1.7,22.6H104.7z"/>
			<path class="st10" d="M130.1,101.4v5.4h6.9v3.7h-6.9v5.8h8.5v3.8h-13.9V97.6h13.9l-0.6,3.8H130.1z"/>
			<path class="st10" d="M163.9,120.2l-6.5-17.5c0.3,2.1,0.7,5.1,0.7,9.2v8.3h-4.8V97.6h6.6l6.7,17.5c-0.3-1.8-0.7-4.8-0.7-8.4v-9.1
				h4.8v22.6H163.9z"/>
			<path class="st10" d="M195.7,101.7v18.5h-5.3v-18.5h-5.8v-4.1h17.3l-0.5,4.1H195.7z"/>
			<path class="st10" d="M217.5,115.4l-1.1,4.9h-5.5l6.8-22.6h6.5l6.8,22.6h-5.7l-1.2-4.9H217.5z M220.8,101.5l-2.4,10h4.8
				L220.8,101.5z"/>
			<path class="st10" d="M249.3,111.6v8.6H244V97.6h7.4c6.1,0,9.3,2.2,9.3,6.9c0,3-1.4,4.8-4.3,6.1l5.7,9.6h-6l-4.6-8.6H249.3z
				 M251.6,107.9c2.3,0,3.6-1,3.6-3.4c0-2.2-1.3-3.1-3.9-3.1h-1.9v6.5H251.6z"/>
			<path class="st10" d="M284.7,120.2h-5.3v-8.4l-7.2-14.1h5.8l4.2,9.9l4.2-9.9h5.6l-7.2,14.1V120.2z"/>
		</g>
	</g>
</g>
</svg>
