<?xml version="1.0" encoding="utf-8"?>
<!-- Generator: Adobe Illustrator 21.0.0, SVG Export Plug-In . SVG Version: 6.00 Build 0)  -->
<svg version="1.1" id="Layer_1" xmlns="http://www.w3.org/2000/svg" xmlns:xlink="http://www.w3.org/1999/xlink" x="0px" y="0px"
	 viewBox="0 0 360 360" style="enable-background:new 0 0 360 360;" xml:space="preserve">
<style type="text/css">
	.st0{fill:none;stroke:#F74D66;stroke-width:2;stroke-miterlimit:10;}
	.st1{fill:#F74D66;}
</style>
<g>
	<circle class="st0" cx="180" cy="180" r="77.1"/>
	<circle class="st1" cx="180" cy="102.9" r="9.2"/>
	<circle class="st1" cx="180" cy="257.1" r="9.2"/>
</g>
<g>
	<g>
		<circle class="st0" cx="180" cy="180" r="115.7"/>
	</g>
	<g>
		<circle class="st1" cx="180" cy="64.3" r="9.2"/>
	</g>
	<g>
		<circle class="st1" cx="180" cy="295.6" r="9.2"/>
	</g>
</g>
<g>
	<g>
		<ellipse transform="matrix(0.7071 -0.7071 0.7071 0.7071 -74.5584 180)" class="st0" cx="180" cy="180" rx="115.7" ry="115.7"/>
		
			<ellipse transform="matrix(0.7071 -0.7071 0.7071 0.7071 -108.4315 261.7769)" class="st1" cx="261.8" cy="261.8" rx="9.2" ry="9.2"/>
		<ellipse transform="matrix(0.7071 -0.7071 0.7071 0.7071 -40.6853 98.2231)" class="st1" cx="98.2" cy="98.2" rx="9.2" ry="9.2"/>
	</g>
	<g>
		<ellipse transform="matrix(0.7071 -0.7071 0.7071 0.7071 7.2185 213.8731)" class="st1" cx="261.8" cy="98.2" rx="9.2" ry="9.2"/>
	</g>
	<g>
		
			<ellipse transform="matrix(0.7071 -0.7071 0.7071 0.7071 -156.3353 146.1269)" class="st1" cx="98.2" cy="261.8" rx="9.2" ry="9.2"/>
	</g>
</g>
</svg>
